<svg width="842" height="406" viewBox="0 0 842 406" fill="none" xmlns="http://www.w3.org/2000/svg">
<rect width="842" height="406" rx="10" fill="black"/>
<mask id="mask0" mask-type="alpha" maskUnits="userSpaceOnUse" x="0" y="0" width="842" height="406">
<rect width="842" height="406" rx="10" fill="black"/>
</mask>
<g mask="url(#mask0)">
<path d="M241.545 408L244.388 398.627L252.642 408H253.105L262.435 398.424L265.043 408H272.107L265.922 385.28L253.12 398.417L241.375 385.081L234.422 408H241.545Z" fill="#712CFB"/>
<path d="M225.719 408L237.685 372.499L252.943 388.085L270.082 372.256L280.905 408H291.076L274.969 354.802L253.294 374.811L233.467 354.56L215.456 408H225.719Z" fill="#712CFB"/>
<path d="M208.283 408L230.139 339.758L252.878 364.352L278.481 339.458L298.329 408H308.465L283.39 321.4L253.257 350.698L225.896 321.099L198.068 408H208.283Z" fill="#712CFB"/>
<path d="M346.364 408L349.203 398.627L357.458 408H357.924L367.254 398.424L369.862 408H376.926L370.737 385.28L357.939 398.417L346.194 385.081L339.241 408H346.364Z" fill="#712CFB"/>
<path d="M330.538 408L342.504 372.499L357.762 388.085L374.9 372.256L385.723 408H395.895L379.787 354.802L358.113 374.811L338.286 354.56L320.275 408H330.538Z" fill="#712CFB"/>
<path d="M313.102 408L334.958 339.758L357.693 364.352L383.3 339.458L403.148 408H413.284L388.205 321.4L358.076 350.698L330.715 321.099L302.887 408H313.102Z" fill="#712CFB"/>
<path d="M33.4765 408L36.3197 398.627L44.5744 408H45.0374L54.3665 398.424L56.9746 408H64.0392L57.8536 385.28L45.0519 398.417L33.3065 385.081L26.354 408H33.4765Z" fill="#712CFB"/>
<path d="M17.6507 408L29.6168 372.499L44.8746 388.085L62.0135 372.256L72.8365 408H83.0084L66.9005 354.802L45.2255 374.811L25.399 354.56L7.3884 408H17.6507Z" fill="#712CFB"/>
<path d="M0.215298 408L22.0711 339.758L44.8096 364.352L70.4129 339.458L90.2611 408H100.397L75.318 321.4L45.1894 350.698L17.828 321.099L-10 408H0.215298Z" fill="#712CFB"/>
<path d="M138.292 408L141.135 398.627L149.39 408H149.856L159.185 398.424L161.793 408H168.858L162.669 385.28L149.871 398.417L138.125 385.081L131.173 408H138.292Z" fill="#712CFB"/>
<path d="M122.47 408L134.436 372.499L149.694 388.085L166.832 372.256L177.655 408H187.824L171.719 354.802L150.044 374.811L130.218 354.56L112.207 408H122.47Z" fill="#712CFB"/>
<path d="M105.034 408L126.89 339.758L149.625 364.352L175.232 339.458L195.08 408H205.216L180.137 321.4L150.008 350.698L122.647 321.099L94.8189 408H105.034Z" fill="#712CFB"/>
<path d="M574.74 -1.99995L571.896 7.37296L563.642 -1.99995L563.179 -1.99995L553.85 7.5756L551.242 -1.99995L544.177 -1.99995L550.363 20.7194L563.164 7.58284L574.91 20.9184L581.862 -1.99995L574.74 -1.99995Z" fill="#712CFB"/>
<path d="M590.565 -2.00005L578.599 33.5012L563.342 17.9147L546.203 33.7437L535.38 -2.00004L525.208 -2.00004L541.316 51.1976L562.991 31.1888L582.817 51.44L600.828 -2.00005L590.565 -2.00005Z" fill="#712CFB"/>
<path d="M608.001 -1.99995L586.145 66.2413L563.407 41.6474L537.803 66.5417L517.955 -1.99994L507.819 -1.99994L532.895 84.5999L563.027 55.3015L590.388 84.9003L618.216 -1.99995L608.001 -1.99995Z" fill="#712CFB"/>
<path d="M469.921 -1.99994L467.081 7.37298L458.826 -1.99994L458.36 -1.99994L449.031 7.57561L446.423 -1.99994L439.358 -1.99994L445.547 20.7194L458.345 7.58286L470.091 20.9184L477.043 -1.99994L469.921 -1.99994Z" fill="#712CFB"/>
<path d="M485.746 -2.00003L473.78 33.5012L458.523 17.9147L441.384 33.7437L430.561 -2.00003L420.389 -2.00002L436.497 51.1976L458.172 31.1888L477.998 51.4401L496.009 -2.00003L485.746 -2.00003Z" fill="#712CFB"/>
<path d="M503.182 -1.99994L481.326 66.2413L458.591 41.6474L432.984 66.5417L413.136 -1.99993L403 -1.99993L428.079 84.5999L458.208 55.3015L485.569 84.9003L513.397 -1.99994L503.182 -1.99994Z" fill="#712CFB"/>
<path d="M782.808 -1.99997L779.964 7.37295L771.71 -1.99997L771.247 -1.99997L761.918 7.57558L759.31 -1.99997L752.245 -1.99997L758.431 20.7194L771.232 7.58283L782.978 20.9184L789.93 -1.99997L782.808 -1.99997Z" fill="#712CFB"/>
<path d="M798.633 -2.00006L786.667 33.5012L771.41 17.9147L754.271 33.7437L743.448 -2.00006L733.276 -2.00006L749.384 51.1976L771.059 31.1887L790.885 51.44L808.896 -2.00006L798.633 -2.00006Z" fill="#712CFB"/>
<path d="M816.069 -1.99997L794.213 66.2413L771.475 41.6474L745.871 66.5417L726.023 -1.99996L715.887 -1.99996L740.966 84.5999L771.095 55.3014L798.456 84.9003L826.284 -1.99997L816.069 -1.99997Z" fill="#712CFB"/>
<path d="M677.992 -1.99995L675.149 7.37296L666.894 -1.99995L666.428 -1.99995L657.099 7.5756L654.491 -1.99995L647.426 -1.99995L653.615 20.7194L666.413 7.58284L678.159 20.9184L685.111 -1.99995L677.992 -1.99995Z" fill="#712CFB"/>
<path d="M693.815 -2.00005L681.848 33.5012L666.591 17.9147L649.452 33.7437L638.629 -2.00004L628.461 -2.00004L644.565 51.1976L666.24 31.1888L686.066 51.44L704.077 -2.00005L693.815 -2.00005Z" fill="#712CFB"/>
<path d="M711.25 -1.99995L689.394 66.2413L666.659 41.6474L641.052 66.5417L621.204 -1.99994L611.068 -1.99994L636.147 84.5999L666.276 55.3015L693.637 84.9003L721.465 -1.99995L711.25 -1.99995Z" fill="#712CFB"/>
<path d="M654.545 408L657.388 398.627L665.642 408H666.105L675.435 398.424L678.043 408H685.107L678.922 385.28L666.12 398.417L654.375 385.081L647.422 408H654.545Z" fill="#712CFB"/>
<path d="M638.719 408L650.685 372.499L665.943 388.085L683.082 372.256L693.905 408H704.076L687.969 354.802L666.294 374.811L646.467 354.56L628.456 408H638.719Z" fill="#712CFB"/>
<path d="M621.283 408L643.139 339.758L665.878 364.352L691.481 339.458L711.329 408H721.465L696.39 321.4L666.257 350.698L638.896 321.099L611.068 408H621.283Z" fill="#712CFB"/>
<path d="M759.364 408L762.203 398.627L770.458 408H770.924L780.254 398.424L782.862 408H789.926L783.737 385.28L770.939 398.417L759.194 385.081L752.241 408H759.364Z" fill="#712CFB"/>
<path d="M743.538 408L755.504 372.499L770.762 388.085L787.9 372.256L798.723 408H808.895L792.787 354.802L771.113 374.811L751.286 354.56L733.275 408H743.538Z" fill="#712CFB"/>
<path d="M726.102 408L747.958 339.758L770.693 364.352L796.3 339.458L816.148 408H826.284L801.205 321.4L771.076 350.698L743.715 321.099L715.887 408H726.102Z" fill="#712CFB"/>
<path d="M446.477 408L449.32 398.627L457.574 408H458.037L467.367 398.424L469.975 408H477.039L470.854 385.28L458.052 398.417L446.306 385.081L439.354 408H446.477Z" fill="#712CFB"/>
<path d="M430.651 408L442.617 372.499L457.875 388.085L475.013 372.256L485.836 408H496.008L479.9 354.802L458.225 374.811L438.399 354.56L420.388 408H430.651Z" fill="#712CFB"/>
<path d="M413.215 408L435.071 339.758L457.81 364.352L483.413 339.458L503.261 408H513.397L488.318 321.4L458.189 350.698L430.828 321.099L403 408H413.215Z" fill="#712CFB"/>
<path d="M551.292 408L554.135 398.627L562.39 408H562.856L572.185 398.424L574.793 408H581.858L575.669 385.28L562.871 398.417L551.125 385.081L544.173 408H551.292Z" fill="#712CFB"/>
<path d="M535.47 408L547.436 372.499L562.694 388.085L579.832 372.256L590.655 408H600.824L584.719 354.802L563.044 374.811L543.218 354.56L525.207 408H535.47Z" fill="#712CFB"/>
<path d="M518.034 408L539.89 339.758L562.625 364.352L588.232 339.458L608.08 408H618.216L593.137 321.4L563.008 350.698L535.647 321.099L507.819 408H518.034Z" fill="#712CFB"/>
<path d="M161.739 -1.99995L158.896 7.37296L150.641 -1.99995L150.178 -1.99995L140.849 7.5756L138.241 -1.99995L131.177 -1.99995L137.362 20.7194L150.164 7.58284L161.909 20.9184L168.862 -1.99995L161.739 -1.99995Z" fill="#712CFB"/>
<path d="M177.565 -2.00005L165.599 33.5012L150.341 17.9147L133.202 33.7437L122.379 -2.00004L112.208 -2.00004L128.315 51.1976L149.99 31.1888L169.817 51.44L187.828 -2.00005L177.565 -2.00005Z" fill="#712CFB"/>
<path d="M195.001 -1.99995L173.145 66.2413L150.406 41.6474L124.803 66.5417L104.955 -1.99994L94.8191 -1.99994L119.894 84.5999L150.027 55.3015L177.388 84.9003L205.216 -1.99995L195.001 -1.99995Z" fill="#712CFB"/>
<path d="M56.9204 -1.99994L54.0808 7.37298L45.8261 -1.99994L45.3595 -1.99994L36.0304 7.57561L33.4223 -1.99994L26.3577 -1.99994L32.5469 20.7194L45.345 7.58286L57.0904 20.9184L64.0429 -1.99994L56.9204 -1.99994Z" fill="#712CFB"/>
<path d="M72.7462 -2.00003L60.7802 33.5012L45.5223 17.9147L28.3835 33.7437L17.5605 -2.00003L7.38858 -2.00002L23.4965 51.1976L45.1714 31.1888L64.9979 51.4401L83.0085 -2.00003L72.7462 -2.00003Z" fill="#712CFB"/>
<path d="M90.1816 -1.99994L68.3258 66.2413L45.591 41.6474L19.984 66.5417L0.135755 -1.99993L-9.99998 -1.99993L15.0789 84.5999L45.2075 55.3015L72.5689 84.9003L100.397 -1.99994L90.1816 -1.99994Z" fill="#712CFB"/>
<path d="M369.807 -1.99997L366.964 7.37295L358.709 -1.99997L358.246 -1.99997L348.917 7.57558L346.309 -1.99997L339.245 -1.99997L345.43 20.7194L358.232 7.58283L369.977 20.9184L376.93 -1.99997L369.807 -1.99997Z" fill="#712CFB"/>
<path d="M385.633 -2.00006L373.667 33.5012L358.409 17.9147L341.27 33.7437L330.447 -2.00006L320.276 -2.00006L336.383 51.1976L358.058 31.1887L377.885 51.44L395.896 -2.00006L385.633 -2.00006Z" fill="#712CFB"/>
<path d="M403.069 -1.99997L381.213 66.2413L358.474 41.6474L332.871 66.5417L313.023 -1.99996L302.887 -1.99996L327.966 84.5999L358.095 55.3014L385.456 84.9003L413.284 -1.99997L403.069 -1.99997Z" fill="#712CFB"/>
<path d="M264.992 -1.99995L262.149 7.37296L253.894 -1.99995L253.428 -1.99995L244.099 7.5756L241.49 -1.99995L234.426 -1.99995L240.615 20.7194L253.413 7.58284L265.159 20.9184L272.111 -1.99995L264.992 -1.99995Z" fill="#712CFB"/>
<path d="M280.814 -2.00005L268.848 33.5012L253.59 17.9147L236.452 33.7437L225.629 -2.00004L215.46 -2.00004L231.565 51.1976L253.24 31.1888L273.066 51.44L291.077 -2.00005L280.814 -2.00005Z" fill="#712CFB"/>
<path d="M298.25 -1.99995L276.394 66.2413L253.659 41.6474L228.052 66.5417L208.204 -1.99994L198.068 -1.99994L223.147 84.5999L253.276 55.3015L280.637 84.9003L308.465 -1.99995L298.25 -1.99995Z" fill="#712CFB"/>
</g>
<path d="M74.5313 216.599H70.9212V224.187H67V204.034H74.5276C76.4955 204.034 78.0943 204.62 79.3134 205.796C80.536 206.972 81.1473 208.478 81.1473 210.316C81.1473 212.155 80.536 213.66 79.3134 214.836C78.0979 216.009 76.5027 216.599 74.5313 216.599ZM70.9537 213.215H74.0501C75.016 213.215 75.7828 212.954 76.3508 212.433C76.9187 211.912 77.2045 211.217 77.2045 210.345C77.2045 209.455 76.9259 208.749 76.3652 208.228C75.8045 207.707 75.0341 207.446 74.0501 207.446H70.9537V213.215V213.215Z" fill="white"/>
<path d="M132.151 224.187L128.201 216.429H126.154V224.187H122.204V204.034H130.075C132.007 204.034 133.559 204.62 134.734 205.796C135.91 206.972 136.496 208.449 136.496 210.229C136.496 211.634 136.112 212.839 135.345 213.852C134.579 214.865 133.533 215.564 132.206 215.94L136.525 224.184H132.151V224.187ZM126.158 213.045H129.341C130.325 213.045 131.099 212.788 131.656 212.278C132.213 211.767 132.495 211.094 132.495 210.258C132.495 209.404 132.217 208.724 131.656 208.21C131.095 207.7 130.325 207.443 129.341 207.443H126.158V213.045Z" fill="white"/>
<path d="M190.651 224.187H178.037V204.034H190.651V207.729H181.958V212.332H189.83V215.828H181.958V220.489H190.651V224.187ZM182.356 202.612H178.92L182.331 199H186.194L189.66 202.612H186.107L184.205 200.762L182.356 202.612Z" fill="white"/>
<path d="M252.471 223.577H248.607V209.449L242.813 223.577H239.546L233.751 209.565V223.577H230V203.423H235.169L241.221 217.975L247.132 203.423H252.474V223.577H252.471Z" fill="white"/>
<path d="M299.12 223.577H295.141V203.423H299.12V223.577Z" fill="white"/>
<path d="M340.599 213.516C340.599 210.372 341.612 207.831 343.638 205.899C345.664 203.966 348.098 203 350.941 203C353.803 203 356.244 203.966 358.27 205.899C360.296 207.831 361.309 210.372 361.309 213.516C361.309 216.643 360.296 219.173 358.27 221.105C356.244 223.038 353.799 224.004 350.941 224.004C348.102 224.004 345.667 223.038 343.638 221.105C341.616 219.173 340.599 216.643 340.599 213.516ZM346.539 208.526C345.287 209.691 344.665 211.345 344.665 213.487C344.665 215.63 345.291 217.284 346.539 218.449C347.791 219.614 349.256 220.197 350.941 220.197C352.645 220.197 354.125 219.614 355.373 218.449C356.624 217.284 357.246 215.63 357.246 213.487C357.246 211.345 356.621 209.691 355.373 208.526C354.121 207.361 352.645 206.778 350.941 206.778C349.256 206.778 347.791 207.361 346.539 208.526Z" fill="white"/>
<path d="M462.895 245.984C457.466 250.761 450.694 253.149 442.577 253.149C434.463 253.149 427.67 250.714 422.204 245.839C416.735 240.968 414 234.86 414 227.513H432.633C432.633 230.177 433.613 232.424 435.577 234.252C437.538 236.079 439.947 236.991 442.805 236.991C445.547 236.991 447.836 236.249 449.663 234.766C451.493 233.282 452.405 231.454 452.405 229.287C452.405 224.832 447.641 221.368 438.117 218.893C431.41 217.181 425.915 214.319 421.629 210.302C417.342 206.289 415.201 200.719 415.201 193.601C415.201 186.75 417.791 181.04 422.975 176.473C428.155 171.906 434.615 169.622 442.349 169.622C450.238 169.622 456.789 171.963 462.009 176.643C467.229 181.325 469.84 187.166 469.84 194.169H451.266C451.266 191.773 450.426 189.776 448.752 188.172C447.077 186.576 444.943 185.777 442.349 185.777C439.947 185.777 437.929 186.461 436.29 187.832C434.651 189.204 433.834 190.897 433.834 192.913C433.834 197.292 438.236 200.639 447.037 202.963C450.466 203.915 453.465 204.971 456.037 206.133C458.609 207.295 461.101 208.825 463.525 210.729C465.945 212.632 467.8 215.05 469.095 217.981C470.39 220.912 471.038 224.282 471.038 228.085C471.038 235.243 468.325 241.207 462.895 245.984Z" fill="white"/>
<path d="M568.094 241.16C559.941 249.154 549.78 253.149 537.604 253.149C525.431 253.149 515.267 249.15 507.113 241.16C498.96 233.166 494.883 223.243 494.883 211.384C494.883 199.528 498.96 189.602 507.113 181.608C515.267 173.613 525.431 169.618 537.604 169.618C549.78 169.618 559.941 173.613 568.094 181.608C576.247 189.602 580.324 199.528 580.324 211.384C580.324 223.243 576.247 233.166 568.094 241.16ZM520.374 228.74C524.986 233.365 530.72 235.677 537.578 235.677C544.437 235.677 550.17 233.365 554.782 228.74C559.391 224.115 561.695 218.328 561.695 211.384C561.695 204.439 559.391 198.642 554.782 193.999C550.17 189.356 544.437 187.032 537.578 187.032C530.72 187.032 524.986 189.356 520.374 193.999C515.762 198.642 513.462 204.435 513.462 211.384C513.458 218.332 515.762 224.115 520.374 228.74Z" fill="white"/>
<path d="M493.447 248.477C491.241 250.627 488.506 251.705 485.243 251.705C481.98 251.705 479.264 250.627 477.097 248.477C474.927 246.328 473.845 243.617 473.845 240.356C473.845 237.165 474.93 234.487 477.097 232.315C479.264 230.144 481.98 229.062 485.243 229.062C488.506 229.062 491.237 230.148 493.447 232.315C495.654 234.483 496.757 237.161 496.757 240.356C496.757 243.617 495.654 246.328 493.447 248.477Z" fill="white"/>
<path d="M600.415 248.477C598.208 250.627 595.473 251.705 592.211 251.705C588.948 251.705 586.231 250.627 584.064 248.477C581.894 246.328 580.812 243.617 580.812 240.356C580.812 237.165 581.898 234.487 584.064 232.315C586.231 230.144 588.948 229.062 592.211 229.062C595.473 229.062 598.205 230.148 600.415 232.315C602.621 234.483 603.725 237.161 603.725 240.356C603.725 243.617 602.621 246.328 600.415 248.477Z" fill="white"/>
<path d="M651.437 253.149L654.168 244.138L662.101 253.149H662.549L671.517 243.946L674.024 253.149H680.817L674.866 231.313L662.564 243.939L651.274 231.117L644.593 253.149H651.437Z" fill="#5EEEC0"/>
<path d="M636.573 253.149L648.073 219.023L662.741 234.005L679.218 218.792L689.618 253.149H699.395L683.91 202.014L663.077 221.249L644.021 201.779L626.709 253.149H636.573Z" fill="#5EEEC0"/>
<path d="M619.807 253.149L640.817 187.553L662.672 211.196L687.285 187.267L706.362 253.149H716.107L692.002 169.908L663.041 198.07L636.74 169.622L609.99 253.149H619.807Z" fill="#5EEEC0"/>
<path d="M462.895 245.984C457.466 250.761 450.694 253.149 442.577 253.149C434.463 253.149 427.67 250.714 422.204 245.839C416.735 240.968 414 234.86 414 227.513H432.633C432.633 230.177 433.613 232.424 435.577 234.252C437.538 236.079 439.947 236.991 442.805 236.991C445.547 236.991 447.836 236.249 449.663 234.766C451.493 233.282 452.405 231.454 452.405 229.287C452.405 224.832 447.641 221.368 438.117 218.893C431.41 217.181 425.915 214.319 421.629 210.302C417.342 206.289 415.201 200.719 415.201 193.601C415.201 186.75 417.791 181.04 422.975 176.473C428.155 171.906 434.615 169.622 442.349 169.622C450.238 169.622 456.789 171.963 462.009 176.643C467.229 181.325 469.84 187.166 469.84 194.169H451.266C451.266 191.773 450.426 189.776 448.752 188.172C447.077 186.576 444.943 185.777 442.349 185.777C439.947 185.777 437.929 186.461 436.29 187.832C434.651 189.204 433.834 190.897 433.834 192.913C433.834 197.292 438.236 200.639 447.037 202.963C450.466 203.915 453.465 204.971 456.037 206.133C458.609 207.295 461.101 208.825 463.525 210.729C465.945 212.632 467.8 215.05 469.095 217.981C470.39 220.912 471.038 224.282 471.038 228.085C471.038 235.243 468.325 241.207 462.895 245.984Z" fill="white"/>
<path d="M568.094 241.16C559.941 249.154 549.78 253.149 537.604 253.149C525.431 253.149 515.267 249.15 507.113 241.16C498.96 233.166 494.883 223.243 494.883 211.384C494.883 199.528 498.96 189.602 507.113 181.608C515.267 173.613 525.431 169.618 537.604 169.618C549.78 169.618 559.941 173.613 568.094 181.608C576.247 189.602 580.324 199.528 580.324 211.384C580.324 223.243 576.247 233.166 568.094 241.16ZM520.374 228.74C524.986 233.365 530.72 235.677 537.578 235.677C544.437 235.677 550.17 233.365 554.782 228.74C559.391 224.115 561.695 218.328 561.695 211.384C561.695 204.439 559.391 198.642 554.782 193.999C550.17 189.356 544.437 187.032 537.578 187.032C530.72 187.032 524.986 189.356 520.374 193.999C515.762 198.642 513.462 204.435 513.462 211.384C513.458 218.332 515.762 224.115 520.374 228.74Z" fill="white"/>
<path d="M493.447 248.477C491.241 250.627 488.506 251.705 485.243 251.705C481.98 251.705 479.264 250.627 477.097 248.477C474.927 246.328 473.845 243.617 473.845 240.356C473.845 237.165 474.93 234.487 477.097 232.315C479.264 230.144 481.98 229.062 485.243 229.062C488.506 229.062 491.237 230.148 493.447 232.315C495.654 234.483 496.757 237.161 496.757 240.356C496.757 243.617 495.654 246.328 493.447 248.477Z" fill="white"/>
<path d="M600.415 248.477C598.208 250.627 595.473 251.705 592.211 251.705C588.948 251.705 586.231 250.627 584.064 248.477C581.894 246.328 580.812 243.617 580.812 240.356C580.812 237.165 581.898 234.487 584.064 232.315C586.231 230.144 588.948 229.062 592.211 229.062C595.473 229.062 598.205 230.148 600.415 232.315C602.621 234.483 603.725 237.161 603.725 240.356C603.725 243.617 602.621 246.328 600.415 248.477Z" fill="white"/>
</svg>
