<svg width="555" height="480" viewBox="0 0 555 480" fill="none" xmlns="http://www.w3.org/2000/svg">
<mask id="mask0" mask-type="alpha" maskUnits="userSpaceOnUse" x="0" y="0" width="555" height="480">
<rect width="555" height="480" rx="10" fill="black"/>
</mask>
<g mask="url(#mask0)">
<path d="M334.836 499.831L338.779 486.833L350.226 499.831H350.868L363.806 486.552L367.422 499.831H377.219L368.641 468.324L350.888 486.542L334.6 468.048L324.958 499.831H334.836Z" fill="#7735E5"/>
<path d="M312.889 499.831L329.483 450.599L350.642 472.214L374.41 450.263L389.419 499.831H403.525L381.187 426.058L351.129 453.806L323.634 425.722L298.657 499.831H312.889Z" fill="#7735E5"/>
<path d="M288.71 499.831L319.019 405.196L350.552 439.302L386.058 404.779L413.583 499.831H427.639L392.865 379.736L351.079 420.367L313.135 379.32L274.543 499.831H288.71Z" fill="#7735E5"/>
<path d="M480.196 499.831L484.134 486.833L495.581 499.831H496.228L509.166 486.552L512.782 499.831H522.58L513.996 468.324L496.248 486.542L479.96 468.048L470.319 499.831H480.196Z" fill="#7735E5"/>
<path d="M458.249 499.831L474.844 450.599L496.003 472.214L519.771 450.263L534.78 499.831H548.886L526.548 426.058L496.489 453.806L468.995 425.722L444.018 499.831H458.249Z" fill="#7735E5"/>
<path d="M434.07 499.831L464.38 405.196L495.908 439.302L531.419 404.779L558.944 499.831H573L538.221 379.736L496.439 420.367L458.495 379.32L419.904 499.831H434.07Z" fill="#7735E5"/>
<path d="M46.2916 499.831L50.2345 486.833L61.682 499.831H62.3241L75.2614 486.552L78.8782 499.831H88.6753L80.0972 468.324L62.3441 486.542L46.0558 468.048L36.4143 499.831H46.2916Z" fill="#7735E5"/>
<path d="M24.3451 499.831L40.9393 450.599L62.0985 472.214L85.8663 450.262L100.875 499.831H114.981L92.6434 426.058L62.5851 453.806L35.0902 425.722L10.1135 499.831H24.3451Z" fill="#7735E5"/>
<path d="M0.166333 499.831L30.4755 405.196L62.0086 439.302L97.5147 404.779L125.04 499.831H139.096L104.317 379.736L62.5353 420.367L24.5912 379.32L-14 499.831H0.166333Z" fill="#7735E5"/>
<path d="M191.647 499.831L195.59 486.833L207.038 499.831H207.685L220.622 486.552L224.239 499.831H234.036L225.453 468.324L207.705 486.542L191.416 468.048L181.775 499.831H191.647Z" fill="#7735E5"/>
<path d="M169.705 499.831L186.3 450.599L207.459 472.214L231.227 450.263L246.236 499.831H260.337L238.004 426.058L207.945 453.806L180.451 425.722L155.474 499.831H169.705Z" fill="#7735E5"/>
<path d="M145.526 499.831L175.836 405.196L207.364 439.302L242.875 404.779L270.4 499.831H284.456L249.677 379.736L207.895 420.367L169.951 379.32L131.36 499.831H145.526Z" fill="#7735E5"/>
<path d="M224.164 -14.4018L220.221 -1.40365L208.774 -14.4018L208.132 -14.4018L195.194 -1.12264L191.577 -14.4018L181.78 -14.4018L190.358 17.1049L208.111 -1.11259L224.4 17.3809L234.041 -14.4018L224.164 -14.4018Z" fill="#7735E5"/>
<path d="M246.111 -14.4021L229.516 34.8303L208.357 13.2152L184.589 35.1665L169.58 -14.402L155.474 -14.402L177.812 59.3712L207.871 31.6234L235.366 59.7074L260.342 -14.4021L246.111 -14.4021Z" fill="#7735E5"/>
<path d="M270.29 -14.4021L239.981 80.2333L208.447 46.127L172.941 80.6499L145.416 -14.402L131.36 -14.402L166.134 105.693L207.921 65.0622L245.865 106.109L284.456 -14.4021L270.29 -14.4021Z" fill="#7735E5"/>
<path d="M78.8033 -14.4018L74.8655 -1.40365L63.418 -14.4018L62.7709 -14.4018L49.8336 -1.12264L46.2168 -14.4018L36.4197 -14.4018L45.0028 17.1049L62.7508 -1.11259L79.0391 17.3809L88.6807 -14.4018L78.8033 -14.4018Z" fill="#7735E5"/>
<path d="M100.75 -14.4021L84.1559 34.8303L62.9966 13.2152L39.2289 35.1665L24.2198 -14.402L10.1137 -14.402L32.4517 59.3712L62.5101 31.6234L90.005 59.7074L114.982 -14.4021L100.75 -14.4021Z" fill="#7735E5"/>
<path d="M124.929 -14.4021L94.6202 80.2333L63.0921 46.127L27.5809 80.6499L0.0558555 -14.402L-14.0001 -14.402L20.7786 105.693L62.5603 65.0622L100.504 106.109L139.096 -14.4021L124.929 -14.4021Z" fill="#7735E5"/>
<path d="M512.708 -14.4018L508.765 -1.40365L497.317 -14.4018L496.675 -14.4018L483.738 -1.12264L480.121 -14.4018L470.324 -14.4018L478.902 17.1049L496.655 -1.11259L512.943 17.3809L522.585 -14.4018L512.708 -14.4018Z" fill="#7735E5"/>
<path d="M534.654 -14.4021L518.06 34.8303L496.901 13.2152L473.133 35.1665L458.124 -14.402L444.018 -14.402L466.356 59.3712L496.414 31.6234L523.909 59.7074L548.886 -14.4021L534.654 -14.4021Z" fill="#7735E5"/>
<path d="M558.833 -14.4022L528.524 80.2332L496.991 46.1269L461.485 80.6498L433.96 -14.4022L419.904 -14.4022L454.683 105.692L496.464 65.0621L534.409 106.109L573 -14.4022L558.833 -14.4022Z" fill="#7735E5"/>
<path d="M367.353 -14.4018L363.41 -1.40365L351.962 -14.4018L351.315 -14.4018L338.378 -1.12264L334.761 -14.4018L324.964 -14.4018L333.547 17.1049L351.295 -1.11259L367.584 17.3809L377.225 -14.4018L367.353 -14.4018Z" fill="#7735E5"/>
<path d="M389.294 -14.4021L372.7 34.8303L351.541 13.2152L327.773 35.1665L312.764 -14.402L298.663 -14.402L320.996 59.3712L351.054 31.6234L378.549 59.7074L403.526 -14.4021L389.294 -14.4021Z" fill="#7735E5"/>
<path d="M413.473 -14.4021L383.164 80.2333L351.636 46.127L316.125 80.6499L288.6 -14.402L274.544 -14.402L309.323 105.693L351.104 65.0622L389.048 106.109L427.64 -14.4021L413.473 -14.4021Z" fill="#7735E5"/>
</g>
<path d="M44.4975 240.192H41.8623V245.731H39V231.02H44.4949C45.9313 231.02 47.0984 231.448 47.9882 232.306C48.8807 233.165 49.3269 234.264 49.3269 235.606C49.3269 236.948 48.8807 238.047 47.9882 238.905C47.101 239.761 45.9366 240.192 44.4975 240.192ZM41.8861 237.722H44.1463C44.8513 237.722 45.4111 237.532 45.8257 237.151C46.2402 236.771 46.4488 236.264 46.4488 235.627C46.4488 234.977 46.2455 234.462 45.8362 234.082C45.4269 233.701 44.8645 233.511 44.1463 233.511H41.8861V237.722V237.722Z" fill="white"/>
<path d="M86.5577 245.731L83.6743 240.068H82.1798V245.731H79.2964V231.02H85.0421C86.4521 231.02 87.5849 231.448 88.443 232.306C89.3012 233.165 89.729 234.243 89.729 235.542C89.729 236.567 89.4491 237.447 88.8893 238.187C88.3295 238.926 87.5664 239.436 86.5973 239.711L89.7501 245.729H86.5577V245.731ZM82.1824 237.598H84.5061C85.2243 237.598 85.7894 237.41 86.196 237.038C86.6026 236.665 86.8086 236.174 86.8086 235.564C86.8086 234.94 86.6053 234.444 86.196 234.068C85.7867 233.696 85.2243 233.508 84.5061 233.508H82.1824V237.598Z" fill="white"/>
<path d="M129.26 245.731H120.052V231.02H129.26V233.717H122.915V237.077H128.661V239.629H122.915V243.032H129.26V245.731ZM123.205 229.982H120.697L123.187 227.346H126.007L128.536 229.982H125.943L124.555 228.632L123.205 229.982Z" fill="white"/>
<path d="M174.386 245.286H171.566V234.973L167.336 245.286H164.951L160.721 235.058V245.286H157.983V230.575H161.756L166.174 241.197L170.488 230.575H174.388V245.286H174.386Z" fill="white"/>
<path d="M208.437 245.286H205.533V230.574H208.437V245.286Z" fill="white"/>
<path d="M238.716 237.942C238.716 235.646 239.456 233.792 240.934 232.381C242.413 230.971 244.19 230.265 246.265 230.265C248.354 230.265 250.136 230.971 251.615 232.381C253.094 233.792 253.833 235.646 253.833 237.942C253.833 240.224 253.094 242.071 251.615 243.481C250.136 244.892 248.351 245.597 246.265 245.597C244.193 245.597 242.416 244.892 240.934 243.481C239.458 242.071 238.716 240.224 238.716 237.942ZM243.052 234.299C242.138 235.15 241.684 236.357 241.684 237.921C241.684 239.485 242.141 240.692 243.052 241.542C243.966 242.393 245.035 242.818 246.265 242.818C247.509 242.818 248.589 242.393 249.5 241.542C250.414 240.692 250.868 239.485 250.868 237.921C250.868 236.357 250.411 235.15 249.5 234.299C248.586 233.449 247.509 233.023 246.265 233.023C245.035 233.023 243.966 233.449 243.052 234.299Z" fill="white"/>
<path d="M327.987 261.643C324.023 265.13 319.08 266.874 313.155 266.874C307.232 266.874 302.274 265.096 298.284 261.538C294.291 257.982 292.295 253.523 292.295 248.16H305.896C305.896 250.105 306.612 251.745 308.046 253.079C309.477 254.413 311.235 255.079 313.321 255.079C315.323 255.079 316.994 254.537 318.328 253.454C319.664 252.371 320.329 251.037 320.329 249.455C320.329 246.203 316.852 243.675 309.899 241.868C305.004 240.619 300.993 238.529 297.864 235.597C294.735 232.667 293.172 228.602 293.172 223.406C293.172 218.405 295.062 214.237 298.846 210.903C302.627 207.569 307.343 205.902 312.989 205.902C318.748 205.902 323.529 207.611 327.34 211.027C331.15 214.445 333.056 218.709 333.056 223.82H319.497C319.497 222.072 318.885 220.613 317.662 219.443C316.44 218.278 314.882 217.694 312.989 217.694C311.235 217.694 309.762 218.194 308.566 219.195C307.37 220.196 306.773 221.432 306.773 222.904C306.773 226.1 309.986 228.544 316.411 230.24C318.914 230.934 321.103 231.706 322.98 232.554C324.858 233.402 326.677 234.519 328.446 235.909C330.213 237.298 331.567 239.063 332.512 241.202C333.458 243.342 333.93 245.801 333.93 248.578C333.93 253.803 331.95 258.156 327.987 261.643Z" fill="white"/>
<path d="M404.777 258.12C398.825 263.956 391.408 266.872 382.52 266.872C373.635 266.872 366.215 263.953 360.264 258.12C354.312 252.285 351.336 245.042 351.336 236.385C351.336 227.731 354.312 220.485 360.264 214.65C366.215 208.814 373.635 205.898 382.52 205.898C391.408 205.898 398.825 208.814 404.777 214.65C410.729 220.485 413.704 227.731 413.704 236.385C413.704 245.042 410.729 252.285 404.777 258.12ZM369.944 249.054C373.31 252.43 377.495 254.118 382.502 254.118C387.508 254.118 391.693 252.43 395.06 249.054C398.424 245.678 400.106 241.454 400.106 236.385C400.106 231.316 398.424 227.084 395.06 223.695C391.693 220.305 387.508 218.609 382.502 218.609C377.495 218.609 373.31 220.305 369.944 223.695C366.577 227.084 364.898 231.313 364.898 236.385C364.895 241.457 366.577 245.678 369.944 249.054Z" fill="white"/>
<path d="M350.288 263.461C348.677 265.031 346.681 265.818 344.299 265.818C341.918 265.818 339.935 265.031 338.353 263.461C336.769 261.892 335.979 259.914 335.979 257.534C335.979 255.204 336.771 253.249 338.353 251.664C339.935 250.079 341.918 249.289 344.299 249.289C346.681 249.289 348.675 250.082 350.288 251.664C351.899 253.246 352.704 255.201 352.704 257.534C352.704 259.914 351.899 261.892 350.288 263.461Z" fill="white"/>
<path d="M428.37 263.461C426.759 265.031 424.763 265.818 422.381 265.818C420 265.818 418.016 265.031 416.435 263.461C414.851 261.892 414.061 259.914 414.061 257.534C414.061 255.204 414.853 253.249 416.435 251.664C418.016 250.079 420 249.289 422.381 249.289C424.763 249.289 426.757 250.082 428.37 251.664C429.981 253.246 430.786 255.201 430.786 257.534C430.786 259.914 429.981 261.892 428.37 263.461Z" fill="white"/>
<path d="M465.614 266.872L467.608 260.294L473.398 266.872H473.726L480.272 260.154L482.101 266.872H487.06L482.717 250.932L473.736 260.149L465.495 250.79L460.618 266.872H465.614Z" fill="#5EEEC0"/>
<path d="M454.764 266.872L463.158 241.962L473.866 252.898L485.893 241.792L493.484 266.872H500.622L489.318 229.546L474.111 243.586L460.201 229.374L447.564 266.872H454.764Z" fill="#5EEEC0"/>
<path d="M442.526 266.872L457.862 218.99L473.815 236.248L491.781 218.781L505.707 266.872H512.821L495.225 206.109L474.085 226.667L454.886 205.901L435.359 266.872H442.526Z" fill="#5EEEC0"/>
<path d="M327.987 261.643C324.023 265.13 319.08 266.874 313.155 266.874C307.232 266.874 302.274 265.096 298.284 261.538C294.291 257.982 292.295 253.523 292.295 248.16H305.896C305.896 250.105 306.612 251.745 308.046 253.079C309.477 254.413 311.235 255.079 313.321 255.079C315.323 255.079 316.994 254.537 318.328 253.454C319.664 252.371 320.329 251.037 320.329 249.455C320.329 246.203 316.852 243.675 309.899 241.868C305.004 240.619 300.993 238.529 297.864 235.597C294.735 232.667 293.172 228.602 293.172 223.406C293.172 218.405 295.062 214.237 298.846 210.903C302.627 207.569 307.343 205.902 312.989 205.902C318.748 205.902 323.529 207.611 327.34 211.027C331.15 214.445 333.056 218.709 333.056 223.82H319.497C319.497 222.072 318.885 220.613 317.662 219.443C316.44 218.278 314.882 217.694 312.989 217.694C311.235 217.694 309.762 218.194 308.566 219.195C307.37 220.196 306.773 221.432 306.773 222.904C306.773 226.1 309.986 228.544 316.411 230.24C318.914 230.934 321.103 231.706 322.98 232.554C324.858 233.402 326.677 234.519 328.446 235.909C330.213 237.298 331.567 239.063 332.512 241.202C333.458 243.342 333.93 245.801 333.93 248.578C333.93 253.803 331.95 258.156 327.987 261.643Z" fill="white"/>
<path d="M404.777 258.12C398.825 263.956 391.408 266.872 382.52 266.872C373.635 266.872 366.215 263.953 360.264 258.12C354.312 252.285 351.336 245.042 351.336 236.385C351.336 227.731 354.312 220.485 360.264 214.65C366.215 208.814 373.635 205.898 382.52 205.898C391.408 205.898 398.825 208.814 404.777 214.65C410.729 220.485 413.704 227.731 413.704 236.385C413.704 245.042 410.729 252.285 404.777 258.12ZM369.944 249.054C373.31 252.43 377.495 254.118 382.502 254.118C387.508 254.118 391.693 252.43 395.06 249.054C398.424 245.678 400.106 241.454 400.106 236.385C400.106 231.316 398.424 227.084 395.06 223.695C391.693 220.305 387.508 218.609 382.502 218.609C377.495 218.609 373.31 220.305 369.944 223.695C366.577 227.084 364.898 231.313 364.898 236.385C364.895 241.457 366.577 245.678 369.944 249.054Z" fill="white"/>
<path d="M350.288 263.461C348.677 265.031 346.681 265.818 344.299 265.818C341.918 265.818 339.935 265.031 338.353 263.461C336.769 261.892 335.979 259.914 335.979 257.534C335.979 255.204 336.771 253.249 338.353 251.664C339.935 250.079 341.918 249.289 344.299 249.289C346.681 249.289 348.675 250.082 350.288 251.664C351.899 253.246 352.704 255.201 352.704 257.534C352.704 259.914 351.899 261.892 350.288 263.461Z" fill="white"/>
<path d="M428.37 263.461C426.759 265.031 424.763 265.818 422.381 265.818C420 265.818 418.016 265.031 416.435 263.461C414.851 261.892 414.061 259.914 414.061 257.534C414.061 255.204 414.853 253.249 416.435 251.664C418.016 250.079 420 249.289 422.381 249.289C424.763 249.289 426.757 250.082 428.37 251.664C429.981 253.246 430.786 255.201 430.786 257.534C430.786 259.914 429.981 261.892 428.37 263.461Z" fill="white"/>
</svg>
