<svg width="493" height="317" viewBox="0 0 493 317" fill="none" xmlns="http://www.w3.org/2000/svg">
<path d="M73.3351 128.504L4.66307 128.04C2.80707 123.091 1.87907 114.739 1.87907 102.984C1.87907 74.5253 11.9324 50.3973 32.0391 30.6C52.4551 10.8027 79.9857 0.903984 114.631 0.903984C148.348 0.903984 175.415 10.4933 195.831 29.672C216.247 48.5413 226.455 71.896 226.455 99.736C226.455 138.712 206.658 169.955 167.063 193.464L109.991 227.336C99.7831 233.832 92.9777 240.637 89.5751 247.752H228.775V309H0.0230692C0.0230692 279.304 5.28174 253.629 15.7991 231.976C26.6257 210.013 45.0311 191.453 71.0151 176.296L120.199 147.528C132.263 140.413 140.77 133.453 145.719 126.648C150.668 119.533 153.143 111.027 153.143 101.128C153.143 90.92 149.586 82.4133 142.471 75.608C135.666 68.8027 125.767 65.4 112.775 65.4C99.1644 65.4 88.6471 69.576 81.2231 77.928C74.1084 86.28 70.5511 96.952 70.5511 109.944C70.5511 116.44 71.4791 122.627 73.3351 128.504ZM319.618 93.24C312.194 109.016 308.482 130.824 308.482 158.664C308.482 186.504 312.194 208.312 319.618 224.088C328.898 242.648 343.591 251.928 363.698 251.928C383.804 251.928 398.498 242.648 407.778 224.088C415.511 208.621 419.378 186.813 419.378 158.664C419.378 130.515 415.511 108.707 407.778 93.24C398.498 74.68 383.804 65.4 363.698 65.4C343.591 65.4 328.898 74.68 319.618 93.24ZM261.618 264.92C243.986 238.317 235.17 202.899 235.17 158.664C235.17 114.429 243.986 79.0107 261.618 52.408C284.199 18.072 318.226 0.903984 363.698 0.903984C409.479 0.903984 443.66 18.072 466.242 52.408C483.874 79.0107 492.69 114.429 492.69 158.664C492.69 202.899 483.874 238.317 466.242 264.92C443.042 299.256 408.86 316.424 363.698 316.424C318.844 316.424 284.818 299.256 261.618 264.92Z" fill="#FF2D76"/>
</svg>
