<svg width="40" height="40" viewBox="0 0 40 40" fill="none" xmlns="http://www.w3.org/2000/svg">
<path fill-rule="evenodd" clip-rule="evenodd" d="M20 38C29.9411 38 38 29.9411 38 20C38 10.0589 29.9411 2 20 2C10.0589 2 2 10.0589 2 20C2 29.9411 10.0589 38 20 38ZM20 40C31.0457 40 40 31.0457 40 20C40 8.9543 31.0457 0 20 0C8.9543 0 0 8.9543 0 20C0 31.0457 8.9543 40 20 40Z" fill="black" fill-opacity="0.15"/>
<path d="M27 14.41L25.59 13L20 18.59L14.41 13L13 14.41L18.59 20L13 25.59L14.41 27L20 21.41L25.59 27L27 25.59L21.41 20L27 14.41Z" fill="black" fill-opacity="0.15"/>
</svg>
