<svg width="40" height="40" viewBox="0 0 40 40" fill="none" xmlns="http://www.w3.org/2000/svg">
<circle cx="20" cy="20" r="19.5" fill="white" fill-opacity="0.5" stroke="#121212"/>
<path fill-rule="evenodd" clip-rule="evenodd" d="M20 0C8.9543 0 0 8.9543 0 20C0 31.0457 8.9543 40 20 40C31.0457 40 40 31.0457 40 20C40 8.9543 31.0457 0 20 0ZM15.6027 9.39771C16.7405 9.34593 17.1041 9.33326 20.001 9.33326H19.9977C22.8955 9.33326 23.2577 9.34593 24.3955 9.39771C25.5311 9.44971 26.3066 9.62949 26.9866 9.89327C27.6889 10.1655 28.2822 10.5299 28.8756 11.1233C29.4689 11.7162 29.8333 12.3113 30.1067 13.0129C30.3689 13.6911 30.5489 14.4662 30.6022 15.6018C30.6533 16.7396 30.6667 17.1031 30.6667 20C30.6667 22.897 30.6533 23.2596 30.6022 24.3974C30.5489 25.5325 30.3689 26.3079 30.1067 26.9863C29.8333 27.6877 29.4689 28.2828 28.8756 28.8757C28.2829 29.469 27.6887 29.8344 26.9873 30.1068C26.3086 30.3706 25.5326 30.5504 24.3971 30.6024C23.2593 30.6541 22.8968 30.6668 19.9997 30.6668C17.103 30.6668 16.7396 30.6541 15.6019 30.6024C14.4665 30.5504 13.6912 30.3706 13.0125 30.1068C12.3114 29.8344 11.7163 29.469 11.1236 28.8757C10.5305 28.2828 10.166 27.6877 9.89336 26.9861C9.6298 26.3079 9.45002 25.5328 9.3978 24.3972C9.34624 23.2594 9.33335 22.897 9.33335 20C9.33335 17.1031 9.34668 16.7393 9.39757 15.6015C9.44869 14.4664 9.62869 13.6911 9.89314 13.0126C10.1665 12.3113 10.5309 11.7162 11.1243 11.1233C11.7172 10.5302 12.3123 10.1657 13.0138 9.89327C13.6921 9.62949 14.4672 9.44971 15.6027 9.39771Z" fill="#121212"/>
<path fill-rule="evenodd" clip-rule="evenodd" d="M19.0445 11.2566C19.2303 11.2563 19.4302 11.2564 19.6459 11.2565L20.0014 11.2566C22.8494 11.2566 23.187 11.2668 24.3116 11.3179C25.3516 11.3655 25.9161 11.5392 26.2921 11.6852C26.7899 11.8786 27.1448 12.1097 27.5179 12.483C27.8912 12.8564 28.1223 13.2119 28.3161 13.7097C28.4621 14.0853 28.6361 14.6497 28.6835 15.6897C28.7346 16.8142 28.7457 17.152 28.7457 19.9987C28.7457 22.8454 28.7346 23.1831 28.6835 24.3076C28.6359 25.3476 28.4621 25.9121 28.3161 26.2876C28.1228 26.7854 27.8912 27.1398 27.5179 27.513C27.1446 27.8863 26.7901 28.1174 26.2921 28.3108C25.9165 28.4574 25.3516 28.6308 24.3116 28.6783C23.1872 28.7294 22.8494 28.7405 20.0014 28.7405C17.1531 28.7405 16.8156 28.7294 15.6911 28.6783C14.6511 28.6303 14.0866 28.4565 13.7104 28.3105C13.2126 28.1172 12.8571 27.8861 12.4837 27.5127C12.1104 27.1394 11.8793 26.7847 11.6855 26.2867C11.5395 25.9112 11.3655 25.3467 11.3182 24.3067C11.2671 23.1823 11.2568 22.8445 11.2568 19.996C11.2568 17.1475 11.2671 16.8115 11.3182 15.6871C11.3657 14.6471 11.5395 14.0826 11.6855 13.7066C11.8788 13.2088 12.1104 12.8533 12.4837 12.4799C12.8571 12.1066 13.2126 11.8755 13.7104 11.6817C14.0864 11.535 14.6511 11.3617 15.6911 11.3139C16.6751 11.2695 17.0565 11.2561 19.0445 11.2539V11.2566ZM25.6952 13.0278C24.9885 13.0278 24.4152 13.6004 24.4152 14.3073C24.4152 15.014 24.9885 15.5873 25.6952 15.5873C26.4018 15.5873 26.9752 15.014 26.9752 14.3073C26.9752 13.6007 26.4018 13.0273 25.6952 13.0273V13.0278ZM14.5236 20.0013C14.5236 16.9762 16.9761 14.5236 20.0012 14.5235C23.0263 14.5235 25.4783 16.9762 25.4783 20.0013C25.4783 23.0264 23.0265 25.478 20.0014 25.478C16.9762 25.478 14.5236 23.0264 14.5236 20.0013Z" fill="#121212"/>
<path d="M20.0009 16.4453C21.9645 16.4453 23.5565 18.0371 23.5565 20.0009C23.5565 21.9645 21.9645 23.5565 20.0009 23.5565C18.0371 23.5565 16.4453 21.9645 16.4453 20.0009C16.4453 18.0371 18.0371 16.4453 20.0009 16.4453V16.4453Z" fill="#121212"/>
</svg>
