<svg width="66" height="38" viewBox="0 0 66 38" fill="none" xmlns="http://www.w3.org/2000/svg">
<path d="M6.504 2.424C6.312 1.5 5.544 0.312 3.624 0.312C2.052 0.312 0.816 1.512 0.816 2.844C0.816 4.116 1.68 4.908 2.892 5.172L4.104 5.436C4.956 5.616 5.376 6.144 5.376 6.756C5.376 7.5 4.8 8.112 3.624 8.112C2.34 8.112 1.668 7.236 1.584 6.288L0.456 6.648C0.612 7.86 1.584 9.18 3.636 9.18C5.448 9.18 6.576 7.98 6.576 6.66C6.576 5.472 5.784 4.584 4.368 4.272L3.096 3.996C2.376 3.84 2.004 3.372 2.004 2.76C2.004 1.968 2.688 1.344 3.648 1.344C4.836 1.344 5.352 2.184 5.448 2.796L6.504 2.424ZM9.13069 9V3.228H8.01469V9H9.13069ZM7.76269 1.044C7.76269 1.488 8.12269 1.848 8.56669 1.848C9.02269 1.848 9.38269 1.488 9.38269 1.044C9.38269 0.588 9.02269 0.228 8.56669 0.228C8.12269 0.228 7.76269 0.588 7.76269 1.044ZM10.5098 7.5C10.6058 8.16 11.2778 9.18 12.8618 9.18C14.2898 9.18 14.9738 8.208 14.9738 7.392C14.9738 6.54 14.4218 5.904 13.3778 5.676L12.4418 5.472C11.9978 5.376 11.7818 5.124 11.7818 4.776C11.7818 4.38 12.1658 4.008 12.7418 4.008C13.6538 4.008 13.8938 4.668 13.9418 4.968L14.9378 4.596C14.8178 4.08 14.3258 3.048 12.7418 3.048C11.6138 3.048 10.6898 3.888 10.6898 4.872C10.6898 5.688 11.2298 6.3 12.1298 6.492L13.1138 6.708C13.5938 6.816 13.8578 7.092 13.8578 7.452C13.8578 7.86 13.5098 8.22 12.8738 8.22C12.0578 8.22 11.6018 7.74 11.5298 7.14L10.5098 7.5ZM17.9876 1.404H16.9556V2.34C16.9556 2.844 16.6916 3.228 16.0676 3.228H15.7556V4.248H16.8596V7.416C16.8596 8.46 17.4836 9.06 18.4676 9.06C18.8516 9.06 19.1396 8.988 19.2356 8.952V7.992C19.1396 8.016 18.9356 8.04 18.7916 8.04C18.2036 8.04 17.9876 7.776 17.9876 7.248V4.248H19.2356V3.228H17.9876V1.404ZM21.4147 5.52C21.4627 4.776 22.0387 4.044 22.9867 4.044C24.0067 4.044 24.5467 4.692 24.5707 5.52H21.4147ZM24.7387 7.02C24.5227 7.668 24.0547 8.184 23.1187 8.184C22.1467 8.184 21.4027 7.464 21.3787 6.432H25.7227C25.7347 6.36 25.7467 6.216 25.7467 6.072C25.7467 4.272 24.7507 3.048 22.9747 3.048C21.5227 3.048 20.2147 4.284 20.2147 6.096C20.2147 8.052 21.5707 9.18 23.1187 9.18C24.4627 9.18 25.3867 8.376 25.7107 7.356L24.7387 7.02ZM28.3026 9V5.52C28.3026 4.656 28.8426 4.056 29.6466 4.056C30.5106 4.056 30.8706 4.632 30.8706 5.376V9H31.9986V5.508C31.9986 4.68 32.5386 4.056 33.3306 4.056C34.1826 4.056 34.5546 4.62 34.5546 5.376V9H35.6706V5.256C35.6706 3.744 34.6866 3.06 33.6786 3.06C32.9466 3.06 32.2026 3.324 31.7466 4.152C31.4346 3.408 30.7386 3.06 30.0186 3.06C29.3466 3.06 28.6266 3.36 28.2666 3.996V3.228H27.1866V9H28.3026ZM37.1156 7.452C37.1156 8.364 37.8716 9.18 39.0476 9.18C40.0796 9.18 40.6556 8.628 40.9076 8.22C40.9076 8.64 40.9436 8.856 40.9676 9H42.0716C42.0476 8.856 41.9996 8.556 41.9996 8.052V5.16C41.9996 4.032 41.3276 3.048 39.5996 3.048C38.3516 3.048 37.3556 3.816 37.2356 4.92L38.3156 5.172C38.3876 4.5 38.8316 4.008 39.6236 4.008C40.4996 4.008 40.8716 4.476 40.8716 5.04C40.8716 5.244 40.7756 5.424 40.4276 5.472L38.8676 5.7C37.8716 5.844 37.1156 6.42 37.1156 7.452ZM39.2036 8.232C38.6276 8.232 38.2676 7.824 38.2676 7.392C38.2676 6.876 38.6276 6.6 39.1076 6.528L40.8716 6.264V6.528C40.8716 7.788 40.1276 8.232 39.2036 8.232ZM1.74 18.74C1.74 16.52 3.228 15.392 4.812 15.392C6.396 15.392 7.884 16.52 7.884 18.74C7.884 20.96 6.396 22.1 4.812 22.1C3.228 22.1 1.74 20.96 1.74 18.74ZM0.54 18.74C0.54 21.584 2.676 23.18 4.812 23.18C6.948 23.18 9.084 21.584 9.084 18.74C9.084 15.896 6.948 14.312 4.812 14.312C2.676 14.312 0.54 15.896 0.54 18.74ZM11.6971 25.28V22.22C12.0091 22.736 12.6811 23.156 13.5691 23.156C15.2611 23.156 16.2571 21.824 16.2571 20.108C16.2571 18.428 15.3331 17.096 13.6051 17.096C12.6691 17.096 11.9851 17.552 11.6731 18.128V17.228H10.5811V25.28H11.6971ZM15.1051 20.108C15.1051 21.296 14.4451 22.148 13.4011 22.148C12.3691 22.148 11.6851 21.296 11.6851 20.108C11.6851 18.956 12.3691 18.092 13.4011 18.092C14.4571 18.092 15.1051 18.956 15.1051 20.108ZM18.4264 19.52C18.4744 18.776 19.0504 18.044 19.9984 18.044C21.0184 18.044 21.5584 18.692 21.5824 19.52H18.4264ZM21.7504 21.02C21.5344 21.668 21.0664 22.184 20.1304 22.184C19.1584 22.184 18.4144 21.464 18.3904 20.432H22.7344C22.7464 20.36 22.7584 20.216 22.7584 20.072C22.7584 18.272 21.7624 17.048 19.9864 17.048C18.5344 17.048 17.2264 18.284 17.2264 20.096C17.2264 22.052 18.5824 23.18 20.1304 23.18C21.4744 23.18 22.3984 22.376 22.7224 21.356L21.7504 21.02ZM27.4023 17.168C27.3423 17.156 27.1863 17.132 27.0303 17.132C26.4423 17.132 25.7223 17.348 25.3023 18.236V17.228H24.1983V23H25.3263V20.108C25.3263 18.836 25.9623 18.332 26.9103 18.332C27.0663 18.332 27.2343 18.344 27.4023 18.368V17.168ZM28.2445 21.452C28.2445 22.364 29.0005 23.18 30.1765 23.18C31.2085 23.18 31.7845 22.628 32.0365 22.22C32.0365 22.64 32.0725 22.856 32.0965 23H33.2005C33.1765 22.856 33.1285 22.556 33.1285 22.052V19.16C33.1285 18.032 32.4565 17.048 30.7285 17.048C29.4805 17.048 28.4845 17.816 28.3645 18.92L29.4445 19.172C29.5165 18.5 29.9605 18.008 30.7525 18.008C31.6285 18.008 32.0005 18.476 32.0005 19.04C32.0005 19.244 31.9045 19.424 31.5565 19.472L29.9965 19.7C29.0005 19.844 28.2445 20.42 28.2445 21.452ZM30.3325 22.232C29.7565 22.232 29.3965 21.824 29.3965 21.392C29.3965 20.876 29.7565 20.6 30.2365 20.528L32.0005 20.264V20.528C32.0005 21.788 31.2565 22.232 30.3325 22.232ZM37.3098 18.092C38.2938 18.092 38.7138 18.752 38.8578 19.316L39.8778 18.884C39.6378 18.008 38.8458 17.048 37.3098 17.048C35.6658 17.048 34.4058 18.308 34.4058 20.108C34.4058 21.86 35.6418 23.18 37.3218 23.18C38.8218 23.18 39.6498 22.208 39.9258 21.38L38.9298 20.948C38.7978 21.404 38.4018 22.136 37.3218 22.136C36.3858 22.136 35.5578 21.428 35.5578 20.108C35.5578 18.764 36.3978 18.092 37.3098 18.092ZM42.3651 23V17.228H41.2491V23H42.3651ZM40.9971 15.044C40.9971 15.488 41.3571 15.848 41.8011 15.848C42.2571 15.848 42.6171 15.488 42.6171 15.044C42.6171 14.588 42.2571 14.228 41.8011 14.228C41.3571 14.228 40.9971 14.588 40.9971 15.044ZM46.7562 22.172C45.7962 22.172 44.9562 21.452 44.9562 20.108C44.9562 18.776 45.7962 18.056 46.7562 18.056C47.7162 18.056 48.5562 18.776 48.5562 20.108C48.5562 21.452 47.7162 22.172 46.7562 22.172ZM46.7562 17.048C45.0282 17.048 43.8042 18.356 43.8042 20.108C43.8042 21.872 45.0282 23.18 46.7562 23.18C48.4842 23.18 49.7082 21.872 49.7082 20.108C49.7082 18.356 48.4842 17.048 46.7562 17.048ZM52.2794 19.664C52.2794 18.788 52.7354 18.08 53.6234 18.08C54.6314 18.08 54.9674 18.728 54.9674 19.532V23H56.0954V19.34C56.0954 18.056 55.4114 17.06 54.0314 17.06C53.3594 17.06 52.6754 17.336 52.2554 18.056V17.228H51.1514V23H52.2794V19.664ZM57.5297 21.452C57.5297 22.364 58.2857 23.18 59.4617 23.18C60.4937 23.18 61.0697 22.628 61.3217 22.22C61.3217 22.64 61.3577 22.856 61.3817 23H62.4857C62.4617 22.856 62.4137 22.556 62.4137 22.052V19.16C62.4137 18.032 61.7417 17.048 60.0137 17.048C58.7657 17.048 57.7697 17.816 57.6497 18.92L58.7297 19.172C58.8017 18.5 59.2457 18.008 60.0377 18.008C60.9137 18.008 61.2857 18.476 61.2857 19.04C61.2857 19.244 61.1897 19.424 60.8417 19.472L59.2817 19.7C58.2857 19.844 57.5297 20.42 57.5297 21.452ZM59.6177 22.232C59.0417 22.232 58.6817 21.824 58.6817 21.392C58.6817 20.876 59.0417 20.6 59.5217 20.528L61.2857 20.264V20.528C61.2857 21.788 60.5417 22.232 59.6177 22.232ZM65.2989 23V14.312H64.1709V23H65.2989ZM1.632 34.096C1.632 32.908 2.304 32.068 3.336 32.068C4.368 32.068 4.992 32.884 4.992 34.072C4.992 35.26 4.356 36.16 3.324 36.16C2.244 36.16 1.632 35.284 1.632 34.096ZM5.004 36.22C5.004 36.568 5.04 36.868 5.064 37H6.156C6.144 36.904 6.096 36.484 6.096 35.932V28.312H4.98V32.044C4.788 31.576 4.236 31.072 3.216 31.072C1.584 31.072 0.48 32.464 0.48 34.096C0.48 35.812 1.524 37.156 3.216 37.156C4.116 37.156 4.728 36.676 5.004 36.124V36.22ZM7.65469 35.452C7.65469 36.364 8.41069 37.18 9.58669 37.18C10.6187 37.18 11.1947 36.628 11.4467 36.22C11.4467 36.64 11.4827 36.856 11.5067 37H12.6107C12.5867 36.856 12.5387 36.556 12.5387 36.052V33.16C12.5387 32.032 11.8667 31.048 10.1387 31.048C8.89069 31.048 7.89469 31.816 7.77469 32.92L8.85469 33.172C8.92669 32.5 9.37069 32.008 10.1627 32.008C11.0387 32.008 11.4107 32.476 11.4107 33.04C11.4107 33.244 11.3147 33.424 10.9667 33.472L9.40669 33.7C8.41069 33.844 7.65469 34.42 7.65469 35.452ZM9.74269 36.232C9.16669 36.232 8.80669 35.824 8.80669 35.392C8.80669 34.876 9.16669 34.6 9.64669 34.528L11.4107 34.264V34.528C11.4107 35.788 10.6667 36.232 9.74269 36.232ZM26.6079 37V28.492H25.0359L22.0119 35.416L19.0119 28.492H17.4159V37H18.5799V30.376L21.4599 37H22.5399L25.4439 30.376V37H26.6079ZM32.4554 36.304C32.4554 36.544 32.4794 36.868 32.5034 37H33.5834C33.5594 36.796 33.5234 36.388 33.5234 35.932V31.228H32.3954V34.708C32.3954 35.584 31.9394 36.184 31.0274 36.184C30.0794 36.184 29.7194 35.488 29.7194 34.696V31.228H28.5914V34.864C28.5914 36.172 29.4074 37.18 30.7514 37.18C31.4234 37.18 32.1434 36.904 32.4554 36.304ZM32.7674 28.732H31.3514L30.3074 30.484H31.2554L32.7674 28.732ZM34.9083 35.5C35.0043 36.16 35.6763 37.18 37.2603 37.18C38.6883 37.18 39.3723 36.208 39.3723 35.392C39.3723 34.54 38.8203 33.904 37.7763 33.676L36.8403 33.472C36.3963 33.376 36.1803 33.124 36.1803 32.776C36.1803 32.38 36.5643 32.008 37.1403 32.008C38.0523 32.008 38.2923 32.668 38.3403 32.968L39.3363 32.596C39.2163 32.08 38.7243 31.048 37.1403 31.048C36.0123 31.048 35.0883 31.888 35.0883 32.872C35.0883 33.688 35.6283 34.3 36.5283 34.492L37.5123 34.708C37.9923 34.816 38.2563 35.092 38.2563 35.452C38.2563 35.86 37.9083 36.22 37.2723 36.22C36.4563 36.22 36.0003 35.74 35.9283 35.14L34.9083 35.5ZM41.9901 37V31.228H40.8741V37H41.9901ZM40.6221 29.044C40.6221 29.488 40.9821 29.848 41.4261 29.848C41.8821 29.848 42.2421 29.488 42.2421 29.044C42.2421 28.588 41.8821 28.228 41.4261 28.228C40.9821 28.228 40.6221 28.588 40.6221 29.044ZM46.3332 32.092C47.3172 32.092 47.7372 32.752 47.8812 33.316L48.9012 32.884C48.6612 32.008 47.8692 31.048 46.3332 31.048C44.6892 31.048 43.4292 32.308 43.4292 34.108C43.4292 35.86 44.6652 37.18 46.3452 37.18C47.8452 37.18 48.6732 36.208 48.9492 35.38L47.9532 34.948C47.8212 35.404 47.4252 36.136 46.3452 36.136C45.4092 36.136 44.5812 35.428 44.5812 34.108C44.5812 32.764 45.4212 32.092 46.3332 32.092ZM49.8539 35.452C49.8539 36.364 50.6099 37.18 51.7859 37.18C52.8179 37.18 53.3939 36.628 53.6459 36.22C53.6459 36.64 53.6819 36.856 53.7059 37H54.8099C54.7859 36.856 54.7379 36.556 54.7379 36.052V33.16C54.7379 32.032 54.0659 31.048 52.3379 31.048C51.0899 31.048 50.0939 31.816 49.9739 32.92L51.0539 33.172C51.1259 32.5 51.5699 32.008 52.3619 32.008C53.2379 32.008 53.6099 32.476 53.6099 33.04C53.6099 33.244 53.5139 33.424 53.1659 33.472L51.6059 33.7C50.6099 33.844 49.8539 34.42 49.8539 35.452ZM51.9419 36.232C51.3659 36.232 51.0059 35.824 51.0059 35.392C51.0059 34.876 51.3659 34.6 51.8459 34.528L53.6099 34.264V34.528C53.6099 35.788 52.8659 36.232 51.9419 36.232Z" fill="white"/>
</svg>
