<svg width="797" height="648" viewBox="0 0 797 648" fill="none" xmlns="http://www.w3.org/2000/svg">
<path d="M797 635.069H687.861V195.406C687.861 140.807 656.268 104.887 603.135 104.887C557.9 104.887 534.923 125.721 516.255 159.486L493.996 198.279L553.592 319.69C585.903 385.064 600.263 441.818 600.263 488.514C600.263 591.246 532.051 648 435.119 648C338.904 648 267.821 591.965 267.821 490.67C267.821 443.255 283.617 386.501 316.646 319.69C334.596 282.333 356.137 239.947 377.677 199.716L339.623 125.721L119.909 635.069H0L272.129 12.9313H404.244L440.863 88.3636C476.046 34.4834 527.025 0 603.135 0C733.096 0 797 87.6452 797 204.027V635.069ZM435.119 313.942L415.732 354.891C398.5 393.685 379.832 445.41 379.832 487.078C379.832 519.406 399.936 545.268 433.683 545.268C466.712 545.268 488.252 520.124 488.252 487.078C488.252 444.692 471.02 392.248 453.787 354.891L435.119 313.942Z" fill="#FF2D76"/>
</svg>
