<svg width="320" height="374" viewBox="0 0 320 374" fill="none" xmlns="http://www.w3.org/2000/svg">
<rect x="115.86" y="113.695" width="128.854" height="176.497" fill="#FF80E1"/>
<rect y="80.1277" width="104.491" height="142.93" fill="#FF80E1"/>
<rect x="115.86" width="70.3824" height="96.3697" fill="#FF80E1"/>
<rect x="202.485" y="11.9108" width="62.8027" height="86.0831" fill="#FF80E1"/>
<rect x="31.3493" y="233.144" width="72.548" height="99.6181" fill="#FF80E1"/>
<rect x="175.083" y="301.758" width="51.9747" height="71.4652" fill="#FF80E1"/>
<rect x="256.71" y="112.479" width="63.2902" height="86.3586" fill="#FF80E1"/>
<rect x="256.71" y="210.667" width="41.1466" height="56.8473" fill="#FF80E1"/>
<rect x="115.933" y="299.392" width="49.6858" height="69.2052" fill="#FF80E1"/>
<rect x="280.988" y="55.2231" width="31.4014" height="42.7708" fill="#FF80E1"/>
<rect x="256.71" y="279.281" width="31.4014" height="42.7708" fill="#FF80E1"/>
<path d="M153.806 182.903H155.554C156.124 182.903 156.586 182.751 156.941 182.447C157.295 182.13 157.473 181.712 157.473 181.193C157.473 180.661 157.295 180.243 156.941 179.939C156.599 179.622 156.136 179.464 155.554 179.464H153.806V182.903ZM155.858 185.487H153.787V190.332H150.785V176.861H155.858C157.226 176.861 158.334 177.266 159.183 178.077C160.044 178.887 160.475 179.92 160.475 181.174C160.475 182.453 160.044 183.492 159.183 184.29C158.334 185.088 157.226 185.487 155.858 185.487ZM166.06 187.957C166.655 187.957 167.155 187.754 167.561 187.349C167.979 186.943 168.188 186.361 168.188 185.601C168.188 184.841 167.979 184.264 167.561 183.872C167.155 183.466 166.655 183.264 166.06 183.264C165.477 183.264 164.977 183.466 164.559 183.872C164.141 184.277 163.932 184.853 163.932 185.601C163.932 186.348 164.141 186.931 164.559 187.349C164.977 187.754 165.477 187.957 166.06 187.957ZM166.06 180.604C167.491 180.604 168.682 181.072 169.632 182.01C170.594 182.947 171.076 184.144 171.076 185.601C171.076 187.057 170.594 188.261 169.632 189.211C168.682 190.148 167.491 190.617 166.06 190.617C164.641 190.617 163.45 190.142 162.488 189.192C161.525 188.242 161.044 187.045 161.044 185.601C161.044 184.157 161.525 182.966 162.488 182.029C163.45 181.079 164.641 180.604 166.06 180.604ZM172.156 187.653L174.607 187.216C174.632 187.57 174.765 187.874 175.006 188.128C175.259 188.368 175.62 188.489 176.089 188.489C176.443 188.489 176.716 188.413 176.906 188.261C177.096 188.096 177.191 187.9 177.191 187.672C177.191 187.292 176.88 187.032 176.26 186.893L175.177 186.646C174.214 186.443 173.505 186.088 173.049 185.582C172.593 185.062 172.365 184.448 172.365 183.739C172.365 182.865 172.707 182.124 173.391 181.516C174.087 180.908 174.955 180.604 175.994 180.604C177.222 180.604 178.141 180.901 178.749 181.497C179.369 182.079 179.711 182.719 179.775 183.416L177.381 183.853C177.343 183.511 177.21 183.232 176.982 183.017C176.766 182.801 176.45 182.694 176.032 182.694C175.753 182.694 175.512 182.77 175.31 182.922C175.107 183.074 175.006 183.27 175.006 183.511C175.006 183.891 175.253 184.125 175.747 184.214L177.001 184.461C177.951 184.651 178.673 185.012 179.167 185.544C179.661 186.076 179.908 186.703 179.908 187.425C179.908 188.299 179.578 189.052 178.92 189.686C178.261 190.306 177.336 190.617 176.146 190.617C175.449 190.617 174.828 190.515 174.284 190.313C173.752 190.11 173.34 189.85 173.049 189.534C172.77 189.204 172.555 188.881 172.403 188.565C172.263 188.248 172.181 187.944 172.156 187.653ZM185.243 178.134V180.889H187.086V183.416H185.243V186.95C185.243 187.608 185.592 187.938 186.288 187.938C186.516 187.938 186.77 187.906 187.048 187.843V190.237C186.694 190.414 186.193 190.503 185.547 190.503C184.572 190.503 183.799 190.23 183.229 189.686C182.672 189.141 182.393 188.4 182.393 187.463V183.416H180.721V180.889H181.196C181.678 180.889 182.039 180.749 182.279 180.471C182.533 180.179 182.659 179.806 182.659 179.35V178.134H185.243ZM191.207 184.48H194.988C194.962 184.049 194.791 183.675 194.475 183.359C194.171 183.042 193.708 182.884 193.088 182.884C192.53 182.884 192.087 183.048 191.758 183.378C191.428 183.707 191.245 184.074 191.207 184.48ZM195.197 186.931L197.61 187.615C197.369 188.489 196.869 189.211 196.109 189.781C195.349 190.338 194.399 190.617 193.259 190.617C191.891 190.617 190.725 190.161 189.763 189.249C188.813 188.337 188.338 187.114 188.338 185.582C188.338 184.112 188.8 182.915 189.725 181.991C190.662 181.066 191.77 180.604 193.05 180.604C194.519 180.604 195.672 181.034 196.508 181.896C197.356 182.744 197.781 183.929 197.781 185.449C197.781 185.93 197.762 186.228 197.724 186.342H191.15C191.175 186.861 191.397 187.298 191.815 187.653C192.233 187.995 192.727 188.166 193.297 188.166C194.272 188.166 194.905 187.754 195.197 186.931ZM205.639 180.889V183.739C205.373 183.675 205.069 183.644 204.727 183.644C204.081 183.644 203.549 183.853 203.131 184.271C202.725 184.689 202.523 185.335 202.523 186.209V190.332H199.635V180.889H202.428V182.162C202.656 181.68 203.004 181.332 203.473 181.117C203.941 180.901 204.41 180.794 204.879 180.794C205.17 180.794 205.423 180.825 205.639 180.889ZM206.686 187.653L209.137 187.216C209.162 187.57 209.295 187.874 209.536 188.128C209.789 188.368 210.15 188.489 210.619 188.489C210.974 188.489 211.246 188.413 211.436 188.261C211.626 188.096 211.721 187.9 211.721 187.672C211.721 187.292 211.411 187.032 210.79 186.893L209.707 186.646C208.744 186.443 208.035 186.088 207.579 185.582C207.123 185.062 206.895 184.448 206.895 183.739C206.895 182.865 207.237 182.124 207.921 181.516C208.618 180.908 209.485 180.604 210.524 180.604C211.753 180.604 212.671 180.901 213.279 181.497C213.9 182.079 214.242 182.719 214.305 183.416L211.911 183.853C211.873 183.511 211.74 183.232 211.512 183.017C211.297 182.801 210.98 182.694 210.562 182.694C210.283 182.694 210.043 182.77 209.84 182.922C209.637 183.074 209.536 183.27 209.536 183.511C209.536 183.891 209.783 184.125 210.277 184.214L211.531 184.461C212.481 184.651 213.203 185.012 213.697 185.544C214.191 186.076 214.438 186.703 214.438 187.425C214.438 188.299 214.109 189.052 213.45 189.686C212.791 190.306 211.867 190.617 210.676 190.617C209.979 190.617 209.359 190.515 208.814 190.313C208.282 190.11 207.87 189.85 207.579 189.534C207.3 189.204 207.085 188.881 206.933 188.565C206.794 188.248 206.711 187.944 206.686 187.653ZM142.443 203.784V209.332H139.555V195.576H142.443V200.497C143.013 199.927 143.817 199.642 144.856 199.642C146.034 199.642 146.92 199.996 147.516 200.706C148.124 201.402 148.428 202.302 148.428 203.404V209.332H145.54V203.898C145.54 203.404 145.407 203.011 145.141 202.72C144.887 202.416 144.507 202.264 144.001 202.264C143.557 202.264 143.19 202.409 142.899 202.701C142.62 202.979 142.468 203.34 142.443 203.784ZM153.743 209.332H150.855V199.889H153.743V209.332ZM151.102 198.198C150.772 197.868 150.608 197.469 150.608 197.001C150.608 196.532 150.772 196.133 151.102 195.804C151.431 195.474 151.824 195.31 152.28 195.31C152.748 195.31 153.147 195.474 153.477 195.804C153.819 196.133 153.99 196.532 153.99 197.001C153.99 197.469 153.819 197.868 153.477 198.198C153.147 198.527 152.748 198.692 152.28 198.692C151.824 198.692 151.431 198.527 151.102 198.198ZM155.493 206.653L157.944 206.216C157.97 206.57 158.103 206.874 158.343 207.128C158.597 207.368 158.958 207.489 159.426 207.489C159.781 207.489 160.053 207.413 160.243 207.261C160.433 207.096 160.528 206.9 160.528 206.672C160.528 206.292 160.218 206.032 159.597 205.893L158.514 205.646C157.552 205.443 156.842 205.088 156.386 204.582C155.93 204.062 155.702 203.448 155.702 202.739C155.702 201.865 156.044 201.124 156.728 200.516C157.425 199.908 158.293 199.604 159.331 199.604C160.56 199.604 161.478 199.901 162.086 200.497C162.707 201.079 163.049 201.719 163.112 202.416L160.718 202.853C160.68 202.511 160.547 202.232 160.319 202.017C160.104 201.801 159.787 201.694 159.369 201.694C159.091 201.694 158.85 201.77 158.647 201.922C158.445 202.074 158.343 202.27 158.343 202.511C158.343 202.891 158.59 203.125 159.084 203.214L160.338 203.461C161.288 203.651 162.01 204.012 162.504 204.544C162.998 205.076 163.245 205.703 163.245 206.425C163.245 207.299 162.916 208.052 162.257 208.686C161.599 209.306 160.674 209.617 159.483 209.617C158.787 209.617 158.166 209.515 157.621 209.313C157.089 209.11 156.678 208.85 156.386 208.534C156.108 208.204 155.892 207.881 155.74 207.565C155.601 207.248 155.519 206.944 155.493 206.653ZM168.581 197.134V199.889H170.424V202.416H168.581V205.95C168.581 206.608 168.929 206.938 169.626 206.938C169.854 206.938 170.107 206.906 170.386 206.843V209.237C170.031 209.414 169.531 209.503 168.885 209.503C167.91 209.503 167.137 209.23 166.567 208.686C166.01 208.141 165.731 207.4 165.731 206.463V202.416H164.059V199.889H164.534C165.015 199.889 165.376 199.749 165.617 199.471C165.87 199.179 165.997 198.806 165.997 198.35V197.134H168.581ZM176.691 206.957C177.287 206.957 177.787 206.754 178.192 206.349C178.61 205.943 178.819 205.361 178.819 204.601C178.819 203.841 178.61 203.264 178.192 202.872C177.787 202.466 177.287 202.264 176.691 202.264C176.109 202.264 175.608 202.466 175.19 202.872C174.772 203.277 174.563 203.853 174.563 204.601C174.563 205.348 174.772 205.931 175.19 206.349C175.608 206.754 176.109 206.957 176.691 206.957ZM176.691 199.604C178.123 199.604 179.313 200.072 180.263 201.01C181.226 201.947 181.707 203.144 181.707 204.601C181.707 206.057 181.226 207.261 180.263 208.211C179.313 209.148 178.123 209.617 176.691 209.617C175.273 209.617 174.082 209.142 173.119 208.192C172.157 207.242 171.675 206.045 171.675 204.601C171.675 203.157 172.157 201.966 173.119 201.029C174.082 200.079 175.273 199.604 176.691 199.604ZM189.57 199.889V202.739C189.304 202.675 189 202.644 188.658 202.644C188.012 202.644 187.48 202.853 187.062 203.271C186.657 203.689 186.454 204.335 186.454 205.209V209.332H183.566V199.889H186.359V201.162C186.587 200.68 186.936 200.332 187.404 200.117C187.873 199.901 188.342 199.794 188.81 199.794C189.102 199.794 189.355 199.825 189.57 199.889ZM194.21 209.332H191.322V199.889H194.21V209.332ZM191.569 198.198C191.24 197.868 191.075 197.469 191.075 197.001C191.075 196.532 191.24 196.133 191.569 195.804C191.899 195.474 192.291 195.31 192.747 195.31C193.216 195.31 193.615 195.474 193.944 195.804C194.286 196.133 194.457 196.532 194.457 197.001C194.457 197.469 194.286 197.868 193.944 198.198C193.615 198.527 193.216 198.692 192.747 198.692C192.291 198.692 191.899 198.527 191.569 198.198ZM201.091 202.264C200.471 202.264 199.951 202.473 199.533 202.891C199.128 203.309 198.925 203.885 198.925 204.62C198.925 205.342 199.134 205.912 199.552 206.33C199.983 206.748 200.509 206.957 201.129 206.957C201.649 206.957 202.073 206.824 202.402 206.558C202.744 206.279 202.972 205.943 203.086 205.551L205.632 206.33C205.404 207.229 204.891 208.002 204.093 208.648C203.308 209.294 202.32 209.617 201.129 209.617C199.711 209.617 198.507 209.148 197.519 208.211C196.544 207.261 196.056 206.064 196.056 204.62C196.056 203.163 196.531 201.966 197.481 201.029C198.444 200.079 199.628 199.604 201.034 199.604C202.263 199.604 203.27 199.92 204.055 200.554C204.841 201.187 205.347 201.966 205.575 202.891L202.991 203.67C202.877 203.264 202.662 202.929 202.345 202.663C202.029 202.397 201.611 202.264 201.091 202.264ZM211.63 206.957C212.225 206.957 212.726 206.754 213.131 206.349C213.549 205.943 213.758 205.361 213.758 204.601C213.758 203.841 213.549 203.264 213.131 202.872C212.726 202.466 212.225 202.264 211.63 202.264C211.047 202.264 210.547 202.466 210.129 202.872C209.711 203.277 209.502 203.853 209.502 204.601C209.502 205.348 209.711 205.931 210.129 206.349C210.547 206.754 211.047 206.957 211.63 206.957ZM211.63 199.604C213.061 199.604 214.252 200.072 215.202 201.01C216.165 201.947 216.646 203.144 216.646 204.601C216.646 206.057 216.165 207.261 215.202 208.211C214.252 209.148 213.061 209.617 211.63 209.617C210.211 209.617 209.021 209.142 208.058 208.192C207.095 207.242 206.614 206.045 206.614 204.601C206.614 203.157 207.095 201.966 208.058 201.029C209.021 200.079 210.211 199.604 211.63 199.604ZM217.726 206.653L220.177 206.216C220.202 206.57 220.335 206.874 220.576 207.128C220.829 207.368 221.19 207.489 221.659 207.489C222.014 207.489 222.286 207.413 222.476 207.261C222.666 207.096 222.761 206.9 222.761 206.672C222.761 206.292 222.451 206.032 221.83 205.893L220.747 205.646C219.784 205.443 219.075 205.088 218.619 204.582C218.163 204.062 217.935 203.448 217.935 202.739C217.935 201.865 218.277 201.124 218.961 200.516C219.658 199.908 220.525 199.604 221.564 199.604C222.793 199.604 223.711 199.901 224.319 200.497C224.94 201.079 225.282 201.719 225.345 202.416L222.951 202.853C222.913 202.511 222.78 202.232 222.552 202.017C222.337 201.801 222.02 201.694 221.602 201.694C221.323 201.694 221.083 201.77 220.88 201.922C220.677 202.074 220.576 202.27 220.576 202.511C220.576 202.891 220.823 203.125 221.317 203.214L222.571 203.461C223.521 203.651 224.243 204.012 224.737 204.544C225.231 205.076 225.478 205.703 225.478 206.425C225.478 207.299 225.149 208.052 224.49 208.686C223.831 209.306 222.907 209.617 221.716 209.617C221.019 209.617 220.399 209.515 219.854 209.313C219.322 209.11 218.91 208.85 218.619 208.534C218.34 208.204 218.125 207.881 217.973 207.565C217.834 207.248 217.751 206.944 217.726 206.653Z" fill="black"/>
</svg>
