<svg width="81" height="24" viewBox="0 0 81 24" fill="none" xmlns="http://www.w3.org/2000/svg">
<rect width="81" height="24" fill="white"/>
<path d="M12.7392 7.42657C12.5732 6.37762 11.7018 4.53147 8.96306 4.53147C7.05426 4.53147 5.85089 5.74825 5.85089 7.00699C5.85089 8.0979 6.51482 8.93706 8.09165 9.23077L11.1208 9.81818C15.4364 10.6154 17.6772 13.4685 17.6772 16.7413C17.6772 20.3496 14.6895 24 9.29503 24C3.02918 23.958 0.331965 19.8462 0 16.5734L4.64751 15.4406C4.85499 17.5385 6.26584 19.3846 9.37802 19.3846C11.3698 19.3846 12.5732 18.4196 12.5732 16.993C12.5732 15.8182 11.6603 14.979 10.1249 14.6853L7.01277 14.0979C3.15367 13.3846 0.829913 10.7832 0.829913 7.38462C0.829913 3.06294 4.60602 0 8.96306 0C14.648 0 16.7642 3.44056 17.2622 6.12587L12.7392 7.42657Z" fill="black"/>
<path d="M21.0789 17.1187C22.8633 17.1187 24.3986 18.6291 24.3986 20.4333C24.3986 22.1956 22.9047 23.79 21.0789 23.79C19.2946 23.79 17.8008 22.2375 17.8008 20.4333C17.8008 18.5872 19.2531 17.1187 21.0789 17.1187Z" fill="black"/>
<path d="M35.4786 0C41.8689 0 47.2634 4.6993 47.2634 12C47.2634 19.2587 41.8274 23.958 35.4786 23.958C29.0883 23.958 23.6523 19.2587 23.6523 12C23.6523 4.6993 29.0883 0 35.4786 0ZM35.4786 18.8811C38.6323 18.8811 42.0349 16.7413 42.0349 11.958C42.0349 7.17483 38.6323 4.99301 35.4786 4.99301C32.3249 4.99301 28.9223 7.17483 28.9223 11.958C28.9223 16.7413 32.3249 18.8811 35.4786 18.8811Z" fill="black"/>
<path d="M51.1219 17.1187C52.9062 17.1187 54.4415 18.6291 54.4415 20.4333C54.4415 22.1956 52.9477 23.79 51.1219 23.79C49.3376 23.79 47.8438 22.2375 47.8438 20.4333C47.8438 18.5872 49.3376 17.1187 51.1219 17.1187Z" fill="black"/>
<path d="M77.0578 4.06986V0.209717H76.1034H74.2776H71.2069H69.3811H66.2275H64.4432H61.2895H59.5052H56.0195V23.4545H61.2895V5.58035H64.4432V23.4545H71.2069V5.58035H74.2776V23.4545H80.9999V4.06986H77.0578Z" fill="#FF4B4B"/>
</svg>
